<svg xmlns="http://www.w3.org/2000/svg" viewBox="0 0 900 520" width="900" height="520">
  <defs>
    <style>
      @import url('https://fonts.googleapis.com/css2?family=Manrope:wght@400;500;600;700;800&amp;display=swap');
      text { font-family: 'Manrope', sans-serif; }
    </style>
  </defs>
  
  <!-- Background -->
  <rect width="900" height="520" fill="#FFFFFF"/>
  
  <!-- Title -->
  <text x="450" y="36" text-anchor="middle" font-size="24" font-weight="700" fill="#182D53">The Double Diamond</text>
  <text x="450" y="58" text-anchor="middle" font-size="13" font-weight="500" fill="#6B7280">HLV Opportunity Identification Process</text>
  
  <!-- 
  Cleaner approach: 
  - Diamonds as simple shapes
  - Phase labels above each half
  - Center vertical lines in each diamond
  - Activities listed below in aligned columns
  -->
  
  <!-- Left Diamond outline -->
  <polygon points="60,260 230,110 400,260 230,410" fill="none" stroke="#182D53" stroke-width="2.5"/>
  
  <!-- Left Diamond center divider (vertical) -->
  <line x1="230" y1="110" x2="230" y2="410" stroke="#182D53" stroke-width="1" stroke-dasharray="4,3" opacity="0.4"/>
  
  <!-- Left Diamond - left half fill (DISCOVER - diverge) -->
  <polygon points="60,260 230,110 230,410" fill="#182D53" fill-opacity="0.08"/>
  
  <!-- Left Diamond - right half fill (REFINE - converge) -->
  <polygon points="230,110 400,260 230,410" fill="#182D53" fill-opacity="0.15"/>
  
  <!-- Right Diamond outline -->
  <polygon points="500,260 670,110 840,260 670,410" fill="none" stroke="#00D866" stroke-width="2.5"/>
  
  <!-- Right Diamond center divider (vertical) -->
  <line x1="670" y1="110" x2="670" y2="410" stroke="#00D866" stroke-width="1" stroke-dasharray="4,3" opacity="0.4"/>
  
  <!-- Right Diamond - left half fill (DEVELOP - diverge) -->
  <polygon points="500,260 670,110 670,410" fill="#00D866" fill-opacity="0.08"/>
  
  <!-- Right Diamond - right half fill (DEFINE - converge) -->
  <polygon points="670,110 840,260 670,410" fill="#00D866" fill-opacity="0.15"/>
  
  <!-- Connecting line between diamonds -->
  <line x1="400" y1="260" x2="500" y2="260" stroke="#6B7280" stroke-width="2" stroke-dasharray="6,4"/>
  
  <!-- Phase labels - positioned above each diamond half -->
  <text x="145" y="95" text-anchor="middle" font-size="15" font-weight="700" fill="#182D53">DISCOVER</text>
  <text x="315" y="95" text-anchor="middle" font-size="15" font-weight="700" fill="#182D53">REFINE</text>
  <text x="585" y="95" text-anchor="middle" font-size="15" font-weight="700" fill="#059669">DEVELOP</text>
  <text x="755" y="95" text-anchor="middle" font-size="15" font-weight="700" fill="#059669">DEFINE</text>
  
  <!-- Diverge/Converge indicators - small labels -->
  <text x="145" y="112" text-anchor="middle" font-size="10" font-weight="500" fill="#6B7280">diverge</text>
  <text x="315" y="112" text-anchor="middle" font-size="10" font-weight="500" fill="#6B7280">converge</text>
  <text x="585" y="112" text-anchor="middle" font-size="10" font-weight="500" fill="#6B7280">diverge</text>
  <text x="755" y="112" text-anchor="middle" font-size="10" font-weight="500" fill="#6B7280">converge</text>
  
  <!-- Activities INSIDE each diamond half - centered in each triangular section -->
  
  <!-- DISCOVER activities (left half of left diamond) -->
  <text x="140" y="235" text-anchor="middle" font-size="11" font-weight="500" fill="#374151">Stakeholder</text>
  <text x="140" y="249" text-anchor="middle" font-size="11" font-weight="500" fill="#374151">Mapping</text>
  <text x="140" y="280" text-anchor="middle" font-size="11" font-weight="500" fill="#374151">Journey</text>
  <text x="140" y="294" text-anchor="middle" font-size="11" font-weight="500" fill="#374151">Mapping</text>
  
  <!-- REFINE activities (right half of left diamond) -->
  <text x="315" y="235" text-anchor="middle" font-size="11" font-weight="500" fill="#374151">Problem</text>
  <text x="315" y="249" text-anchor="middle" font-size="11" font-weight="500" fill="#374151">Mapping</text>
  <text x="315" y="280" text-anchor="middle" font-size="11" font-weight="500" fill="#374151">Reframing</text>
  
  <!-- DEVELOP activities (left half of right diamond) -->
  <text x="580" y="235" text-anchor="middle" font-size="11" font-weight="500" fill="#374151">Ideation</text>
  <text x="580" y="266" text-anchor="middle" font-size="11" font-weight="500" fill="#374151">Prototyping</text>
  <text x="580" y="297" text-anchor="middle" font-size="11" font-weight="500" fill="#374151">Testing</text>
  
  <!-- DEFINE activities (right half of right diamond) -->
  <text x="755" y="240" text-anchor="middle" font-size="11" font-weight="500" fill="#374151">Business</text>
  <text x="755" y="254" text-anchor="middle" font-size="11" font-weight="500" fill="#374151">Model</text>
  <text x="755" y="285" text-anchor="middle" font-size="11" font-weight="500" fill="#374151">Pitch Deck</text>
  
  <!-- Space labels below diamonds -->
  <g transform="translate(230, 450)">
    <rect x="-70" y="-14" width="140" height="28" rx="4" fill="#F3F4F6"/>
    <text x="0" y="5" text-anchor="middle" font-size="12" font-weight="600" fill="#182D53">PROBLEM SPACE</text>
  </g>
  
  <g transform="translate(670, 450)">
    <rect x="-70" y="-14" width="140" height="28" rx="4" fill="#ECFDF5"/>
    <text x="0" y="5" text-anchor="middle" font-size="12" font-weight="600" fill="#059669">SOLUTION SPACE</text>
  </g>
  
  <!-- Entry arrow -->
  <line x1="20" y1="260" x2="50" y2="260" stroke="#182D53" stroke-width="3" stroke-linecap="round"/>
  <g transform="translate(55, 260) rotate(0)">
    <polygon points="0,0 -12,-6 -12,6" fill="#182D53"/>
  </g>
  
  <!-- Exit to LPP -->
  <line x1="840" y1="260" x2="855" y2="260" stroke="#00D866" stroke-width="3" stroke-linecap="round"/>
  <g transform="translate(860, 260) rotate(0)">
    <polygon points="0,0 -12,-6 -12,6" fill="#00D866"/>
  </g>
  
  <!-- LPP badge -->
  <g transform="translate(890, 260)">
    <rect x="-22" y="-40" width="44" height="80" rx="6" fill="#00D866"/>
    <text x="0" y="-12" text-anchor="middle" font-size="13" font-weight="700" fill="#FFFFFF">LPP</text>
    <text x="0" y="6" text-anchor="middle" font-size="8" font-weight="500" fill="#FFFFFF">Lean</text>
    <text x="0" y="17" text-anchor="middle" font-size="8" font-weight="500" fill="#FFFFFF">Product</text>
    <text x="0" y="28" text-anchor="middle" font-size="8" font-weight="500" fill="#FFFFFF">Plan</text>
  </g>
  
  <!-- Center transition points -->
  <circle cx="230" cy="260" r="5" fill="#182D53"/>
  <circle cx="670" cy="260" r="5" fill="#00D866"/>
  
  <!-- Subtle arrows showing flow direction at widest points -->
  <!-- Left diamond - outward arrows at DISCOVER -->
  <g transform="translate(60, 260) rotate(180)">
    <polygon points="0,0 -8,-4 -8,4" fill="#182D53" opacity="0.5"/>
  </g>
  
  <!-- Right diamond - outward arrows at DEVELOP -->
  <g transform="translate(500, 260) rotate(180)">
    <polygon points="0,0 -8,-4 -8,4" fill="#00D866" opacity="0.5"/>
  </g>
  
</svg>