<svg viewBox="0 0 1200 520" xmlns="http://www.w3.org/2000/svg" style="font-family: 'Manrope', system-ui, sans-serif;">
  <defs>
    <style>
      @import url('https://fonts.googleapis.com/css2?family=Manrope:wght@400;500;600;700;800&amp;display=swap');
      text { font-family: 'Manrope', system-ui, sans-serif; }
    </style>
  </defs>
  
  <!-- Title -->
  <text x="1100" y="40" text-anchor="end" style="font-size: 14px; font-weight: 800; fill: #182D53;">GEC</text>
  <text x="1100" y="60" text-anchor="end" style="font-size: 14px; font-weight: 800; fill: #3B82F6;">ROADMAP</text>

  <!-- START pill -->
  <rect x="20" y="160" width="60" height="40" rx="20" fill="#FFFFFF" stroke="#182D53" stroke-width="2"/>
  <text x="50" y="185" text-anchor="middle" style="font-size: 12px; font-weight: 700; fill: #182D53;">START</text>

  <!-- Winding path -->
  <path d="M 80,180 
    Q 90,180 100,180
    Q 150,210 200,280
    Q 260,200 320,160
    Q 380,200 440,240
    Q 490,290 540,340
    Q 600,300 660,260
    Q 710,310 760,360
    Q 820,310 880,260
    Q 930,300 980,340
    Q 1040,300 1100,260" 
    fill="none" stroke="#182D53" stroke-width="3" stroke-linecap="round"/>

  <!-- Module 1: Stakeholder Mapping -->
  <circle cx="100" cy="180" r="28" fill="#FFFFFF" stroke="#182D53" stroke-width="2"/>
  <text x="100" y="185" text-anchor="middle" style="font-size: 16px; font-weight: 600; fill: #182D53;">1</text>
  <text x="100" y="230" text-anchor="middle" style="font-size: 11px; font-weight: 600; fill: #182D53;">STAKEHOLDER</text>
  <text x="100" y="244" text-anchor="middle" style="font-size: 11px; font-weight: 600; fill: #182D53;">MAPPING</text>
  <!-- Icon: network nodes -->
  <circle cx="100" cy="128" r="4" fill="#6B7280"/>
  <circle cx="88" cy="140" r="3" fill="#6B7280"/>
  <circle cx="112" cy="140" r="3" fill="#6B7280"/>
  <circle cx="100" cy="148" r="3" fill="#6B7280"/>

  <!-- Module 2: Problem Identification -->
  <circle cx="200" cy="280" r="28" fill="#FFFFFF" stroke="#182D53" stroke-width="2"/>
  <text x="200" y="285" text-anchor="middle" style="font-size: 16px; font-weight: 600; fill: #182D53;">2</text>
  <text x="200" y="330" text-anchor="middle" style="font-size: 11px; font-weight: 600; fill: #182D53;">PROBLEM</text>
  <text x="200" y="344" text-anchor="middle" style="font-size: 11px; font-weight: 600; fill: #182D53;">IDENTIFICATION</text>
  <!-- Icon: magnifying glass -->
  <circle cx="200" cy="228" r="8" fill="none" stroke="#6B7280" stroke-width="2"/>
  <line x1="206" y1="234" x2="212" y2="240" stroke="#6B7280" stroke-width="2"/>

  <!-- Module 3: Customer Validation -->
  <circle cx="320" cy="160" r="28" fill="#FFFFFF" stroke="#182D53" stroke-width="2"/>
  <text x="320" y="165" text-anchor="middle" style="font-size: 16px; font-weight: 600; fill: #182D53;">3</text>
  <text x="320" y="210" text-anchor="middle" style="font-size: 11px; font-weight: 600; fill: #182D53;">CUSTOMER</text>
  <text x="320" y="224" text-anchor="middle" style="font-size: 11px; font-weight: 600; fill: #182D53;">VALIDATION</text>
  <!-- Icon: group of people -->
  <circle cx="320" cy="104" r="4" fill="#6B7280"/>
  <circle cx="308" cy="104" r="3" fill="#6B7280"/>
  <circle cx="332" cy="104" r="3" fill="#6B7280"/>

  <!-- Module 4: Problem Reframing -->
  <circle cx="440" cy="240" r="28" fill="#FFFFFF" stroke="#182D53" stroke-width="2"/>
  <text x="440" y="245" text-anchor="middle" style="font-size: 16px; font-weight: 600; fill: #182D53;">4</text>
  <text x="440" y="290" text-anchor="middle" style="font-size: 11px; font-weight: 600; fill: #182D53;">PROBLEM</text>
  <text x="440" y="304" text-anchor="middle" style="font-size: 11px; font-weight: 600; fill: #182D53;">REFRAMING</text>
  <!-- Icon: frame/reframe -->
  <rect x="430" y="188" width="10" height="10" fill="#6B7280"/>
  <rect x="442" y="196" width="10" height="10" fill="#6B7280"/>

  <!-- Module 5: Solution Development -->
  <circle cx="540" cy="340" r="28" fill="#FFFFFF" stroke="#182D53" stroke-width="2"/>
  <text x="540" y="345" text-anchor="middle" style="font-size: 16px; font-weight: 600; fill: #182D53;">5</text>
  <text x="540" y="390" text-anchor="middle" style="font-size: 11px; font-weight: 600; fill: #182D53;">SOLUTION</text>
  <text x="540" y="404" text-anchor="middle" style="font-size: 11px; font-weight: 600; fill: #182D53;">DEVELOPMENT</text>
  <!-- Icon: lightbulb -->
  <circle cx="540" cy="288" r="6" fill="none" stroke="#6B7280" stroke-width="2"/>
  <line x1="540" y1="294" x2="540" y2="300" stroke="#6B7280" stroke-width="2"/>

  <!-- Module 6: Individual Pitches -->
  <circle cx="660" cy="260" r="28" fill="#FFFFFF" stroke="#182D53" stroke-width="2"/>
  <text x="660" y="265" text-anchor="middle" style="font-size: 16px; font-weight: 600; fill: #182D53;">6</text>
  <text x="660" y="310" text-anchor="middle" style="font-size: 11px; font-weight: 600; fill: #182D53;">INDIVIDUAL</text>
  <text x="660" y="324" text-anchor="middle" style="font-size: 11px; font-weight: 600; fill: #182D53;">PITCHES</text>
  <!-- Icon: speech bubble -->
  <rect x="648" y="205" width="24" height="16" rx="3" fill="none" stroke="#6B7280" stroke-width="2"/>
  <polygon points="658,221 662,221 660,227" fill="#6B7280"/>

  <!-- Module 7: User Journey -->
  <circle cx="760" cy="360" r="28" fill="#FFFFFF" stroke="#182D53" stroke-width="2"/>
  <text x="760" y="365" text-anchor="middle" style="font-size: 16px; font-weight: 600; fill: #182D53;">7</text>
  <text x="760" y="410" text-anchor="middle" style="font-size: 11px; font-weight: 600; fill: #182D53;">USER</text>
  <text x="760" y="424" text-anchor="middle" style="font-size: 11px; font-weight: 600; fill: #182D53;">JOURNEY</text>
  <!-- Icon: path/person -->
  <circle cx="750" cy="308" r="3" fill="#6B7280"/>
  <path d="M755,308 Q760,303 765,308 Q770,313 775,308" fill="none" stroke="#6B7280" stroke-width="2"/>

  <!-- Module 8: Lean Canvas -->
  <circle cx="880" cy="260" r="28" fill="#FFFFFF" stroke="#182D53" stroke-width="2"/>
  <text x="880" y="265" text-anchor="middle" style="font-size: 16px; font-weight: 600; fill: #182D53;">8</text>
  <text x="880" y="310" text-anchor="middle" style="font-size: 11px; font-weight: 600; fill: #182D53;">LEAN</text>
  <text x="880" y="324" text-anchor="middle" style="font-size: 11px; font-weight: 600; fill: #182D53;">CANVAS</text>
  <!-- Icon: grid -->
  <rect x="868" y="205" width="24" height="20" fill="none" stroke="#6B7280" stroke-width="2"/>
  <line x1="880" y1="205" x2="880" y2="225" stroke="#6B7280" stroke-width="1"/>
  <line x1="868" y1="215" x2="892" y2="215" stroke="#6B7280" stroke-width="1"/>

  <!-- Module 9: Lean Product Plan -->
  <circle cx="980" cy="340" r="28" fill="#FFFFFF" stroke="#182D53" stroke-width="2"/>
  <text x="980" y="345" text-anchor="middle" style="font-size: 16px; font-weight: 600; fill: #182D53;">9</text>
  <text x="980" y="390" text-anchor="middle" style="font-size: 11px; font-weight: 600; fill: #182D53;">LEAN PRODUCT</text>
  <text x="980" y="404" text-anchor="middle" style="font-size: 11px; font-weight: 600; fill: #182D53;">PLAN</text>
  <!-- Icon: document -->
  <rect x="968" y="288" width="24" height="28" rx="2" fill="none" stroke="#6B7280" stroke-width="2"/>
  <line x1="974" y1="296" x2="986" y2="296" stroke="#6B7280" stroke-width="1"/>
  <line x1="974" y1="302" x2="986" y2="302" stroke="#6B7280" stroke-width="1"/>
  <line x1="974" y1="308" x2="986" y2="308" stroke="#6B7280" stroke-width="1"/>

  <!-- Module 10: Pitch Day -->
  <circle cx="1100" cy="260" r="28" fill="#FFFFFF" stroke="#182D53" stroke-width="2"/>
  <text x="1100" y="265" text-anchor="middle" style="font-size: 16px; font-weight: 600; fill: #182D53;">10</text>
  <text x="1100" y="310" text-anchor="middle" style="font-size: 11px; font-weight: 600; fill: #182D53;">PITCH</text>
  <text x="1100" y="324" text-anchor="middle" style="font-size: 11px; font-weight: 600; fill: #182D53;">DAY</text>
  <!-- Icon: celebration/firework -->
  <line x1="1100" y1="205" x2="1100" y2="215" stroke="#6B7280" stroke-width="2"/>
  <line x1="1092" y1="210" x2="1088" y2="200" stroke="#6B7280" stroke-width="1"/>
  <line x1="1108" y1="210" x2="1112" y2="200" stroke="#6B7280" stroke-width="1"/>
  <line x1="1095" y1="215" x2="1088" y2="218" stroke="#6B7280" stroke-width="1"/>
  <line x1="1105" y1="215" x2="1112" y2="218" stroke="#6B7280" stroke-width="1"/>

  <!-- CHECKPOINT: Vlog #1 -->
  <line x1="130" y1="350" x2="100" y2="215" stroke="#EC4899" stroke-width="2"/>
  <polygon points="-5,-5 5,0 -5,5" fill="#EC4899" transform="translate(102, 218) rotate(-70)"/>
  <text x="130" y="370" text-anchor="middle" style="font-size: 13px; font-weight: 700; fill: #EC4899;">Vlog #1</text>
  <text x="130" y="386" text-anchor="middle" style="font-size: 11px; font-weight: 500; fill: #EC4899;">Nov 25</text>

  <!-- CHECKPOINT: Submit Quick Pitch -->
  <line x1="610" y1="140" x2="660" y2="225" stroke="#3B82F6" stroke-width="2"/>
  <polygon points="-5,-5 5,0 -5,5" fill="#3B82F6" transform="translate(658, 222) rotate(60)"/>
  <text x="610" y="110" text-anchor="middle" style="font-size: 13px; font-weight: 700; fill: #3B82F6;">Submit</text>
  <text x="610" y="126" text-anchor="middle" style="font-size: 13px; font-weight: 700; fill: #3B82F6;">Quick Pitch</text>
  <text x="610" y="142" text-anchor="middle" style="font-size: 11px; font-weight: 500; fill: #3B82F6;">Jan 6</text>

  <!-- CHECKPOINT: Call #2 -->
  <line x1="660" y1="420" x2="660" y2="295" stroke="#00D866" stroke-width="2"/>
  <polygon points="-5,-5 5,0 -5,5" fill="#00D866" transform="translate(660, 298) rotate(-90)"/>
  <text x="660" y="440" text-anchor="middle" style="font-size: 13px; font-weight: 700; fill: #00D866;">Call #2</text>
  <text x="660" y="456" text-anchor="middle" style="font-size: 11px; font-weight: 500; fill: #00D866;">Jan 13</text>

  <!-- CHECKPOINT: Vlog #2 -->
  <line x1="940" y1="160" x2="880" y2="225" stroke="#EC4899" stroke-width="2"/>
  <polygon points="-5,-5 5,0 -5,5" fill="#EC4899" transform="translate(882, 222) rotate(50)"/>
  <text x="940" y="140" text-anchor="middle" style="font-size: 13px; font-weight: 700; fill: #EC4899;">Vlog #2</text>
  <text x="940" y="156" text-anchor="middle" style="font-size: 11px; font-weight: 500; fill: #EC4899;">Feb 3</text>

  <!-- CHECKPOINT: Call #3 -->
  <line x1="850" y1="420" x2="870" y2="295" stroke="#00D866" stroke-width="2"/>
  <polygon points="-5,-5 5,0 -5,5" fill="#00D866" transform="translate(869, 298) rotate(-85)"/>
  <text x="850" y="440" text-anchor="middle" style="font-size: 13px; font-weight: 700; fill: #00D866;">Call #3</text>
  <text x="850" y="456" text-anchor="middle" style="font-size: 11px; font-weight: 500; fill: #00D866;">Feb 24</text>

  <!-- CHECKPOINT: Vlog #3 -->
  <line x1="1050" y1="440" x2="980" y2="375" stroke="#EC4899" stroke-width="2"/>
  <polygon points="-5,-5 5,0 -5,5" fill="#EC4899" transform="translate(982, 377) rotate(130)"/>
  <text x="1050" y="460" text-anchor="middle" style="font-size: 13px; font-weight: 700; fill: #EC4899;">Vlog #3</text>
  <text x="1050" y="476" text-anchor="middle" style="font-size: 11px; font-weight: 500; fill: #EC4899;">Mar 17</text>

  <!-- CHECKPOINT: Pitch Day -->
  <line x1="1150" y1="180" x2="1100" y2="225" stroke="#EF4444" stroke-width="2"/>
  <polygon points="-5,-5 5,0 -5,5" fill="#EF4444" transform="translate(1102, 222) rotate(50)"/>
  <text x="1150" y="160" text-anchor="middle" style="font-size: 13px; font-weight: 700; fill: #EF4444;">PITCH DAY</text>
  <text x="1150" y="176" text-anchor="middle" style="font-size: 11px; font-weight: 500; fill: #EF4444;">May 22</text>

  <!-- Footer -->
  <text x="600" y="500" text-anchor="middle" style="font-size: 11px; font-weight: 500; fill: #6B7280;">Global Entrepreneurship Challenge 2025-2026 • Belonging, Support, and Connection</text>
</svg>
