<svg viewBox="0 0 1200 650" xmlns="http://www.w3.org/2000/svg">
  <defs>
    <style>
      @import url('https://fonts.googleapis.com/css2?family=Manrope:wght@400;500;600;700&amp;display=swap');
      .title { font-family: 'Manrope', sans-serif; font-size: 24px; font-weight: 700; fill: #182D53; }
      .subtitle { font-family: 'Manrope', sans-serif; font-size: 14px; font-weight: 500; fill: #6B7280; }
      .card-title { font-family: 'Manrope', sans-serif; font-size: 14px; font-weight: 700; fill: #111827; }
      .card-module { font-family: 'Manrope', sans-serif; font-size: 11px; font-weight: 400; fill: #6B7280; }
      .card-date { font-family: 'Manrope', sans-serif; font-size: 20px; font-weight: 700; }
      .card-item { font-family: 'Manrope', sans-serif; font-size: 11px; font-weight: 400; fill: #4B5563; }
      .card-submit-label { font-family: 'Manrope', sans-serif; font-size: 9px; font-weight: 500; fill: #9CA3AF; text-transform: uppercase; letter-spacing: 0.5px; }
      .card-submit { font-family: 'Manrope', sans-serif; font-size: 12px; font-weight: 500; fill: #374151; }
      .legend { font-family: 'Manrope', sans-serif; font-size: 12px; font-weight: 400; fill: #6B7280; }
      .badge { font-family: 'Manrope', sans-serif; font-size: 10px; font-weight: 700; fill: white; }
    </style>
  </defs>
  
  <!-- Background -->
  <rect width="1200" height="650" fill="white"/>
  
  <!-- Header -->
  <text x="600" y="40" text-anchor="middle" class="title">GEC 2025-2026 Checkpoints</text>
  <text x="600" y="62" text-anchor="middle" class="subtitle">Your journey from problem discovery to Pitch Day</text>
  
  <!-- Card 1: Vlog #1 (Complete) -->
  <g transform="translate(24, 90)">
    <rect x="0" y="0" width="140" height="180" rx="12" fill="#ECFDF5" stroke="#34D399" stroke-width="2"/>
    <circle cx="130" cy="10" r="10" fill="#10B981"/>
    <text x="130" y="14" text-anchor="middle" class="badge">✓</text>
    <rect x="12" y="16" width="36" height="36" rx="8" fill="#EC4899"/>
    <text x="30" y="40" text-anchor="middle" fill="white" font-size="16">📹</text>
    <text x="56" y="30" class="card-title">Vlog #1</text>
    <text x="56" y="44" class="card-module">Module 1-3</text>
    <text x="12" y="72" class="card-date" fill="#EC4899">Nov 25</text>
    <text x="12" y="92" class="card-item">• Show your city/school</text>
    <text x="12" y="106" class="card-item">• Stakeholder map</text>
    <text x="12" y="120" class="card-item">• Top 3 problems</text>
    <line x1="12" y1="134" x2="128" y2="134" stroke="#D1D5DB"/>
    <text x="12" y="150" class="card-submit-label">Submit via</text>
    <text x="12" y="166" class="card-submit">Padlet</text>
  </g>
  
  <!-- Card 2: Quick Pitch (Complete) -->
  <g transform="translate(172, 90)">
    <rect x="0" y="0" width="140" height="180" rx="12" fill="#ECFDF5" stroke="#34D399" stroke-width="2"/>
    <circle cx="130" cy="10" r="10" fill="#10B981"/>
    <text x="130" y="14" text-anchor="middle" class="badge">✓</text>
    <rect x="12" y="16" width="36" height="36" rx="8" fill="#3B82F6"/>
    <text x="30" y="40" text-anchor="middle" fill="white" font-size="16">📤</text>
    <text x="56" y="30" class="card-title">Quick Pitch</text>
    <text x="56" y="44" class="card-module">Module 6</text>
    <text x="12" y="72" class="card-date" fill="#3B82F6">Jan 6</text>
    <text x="12" y="92" class="card-item">• 60-second video</text>
    <text x="12" y="106" class="card-item">• Your solution idea</text>
    <text x="12" y="120" class="card-item">• Individual submission</text>
    <line x1="12" y1="134" x2="128" y2="134" stroke="#D1D5DB"/>
    <text x="12" y="150" class="card-submit-label">Submit via</text>
    <text x="12" y="166" class="card-submit">Google Form</text>
  </g>
  
  <!-- Card 3: Call #2 (Complete) -->
  <g transform="translate(320, 90)">
    <rect x="0" y="0" width="140" height="180" rx="12" fill="#ECFDF5" stroke="#34D399" stroke-width="2"/>
    <circle cx="130" cy="10" r="10" fill="#10B981"/>
    <text x="130" y="14" text-anchor="middle" class="badge">✓</text>
    <rect x="12" y="16" width="36" height="36" rx="8" fill="#10B981"/>
    <text x="30" y="40" text-anchor="middle" fill="white" font-size="16">👥</text>
    <text x="56" y="30" class="card-title">Call #2</text>
    <text x="56" y="44" class="card-module">—</text>
    <text x="12" y="72" class="card-date" fill="#10B981">Jan 13</text>
    <text x="12" y="92" class="card-item">• Winners announced</text>
    <text x="12" y="106" class="card-item">• Form teams</text>
    <text x="12" y="120" class="card-item">• Next steps</text>
    <line x1="12" y1="134" x2="128" y2="134" stroke="#D1D5DB"/>
    <text x="12" y="150" class="card-submit-label">Submit via</text>
    <text x="12" y="166" class="card-submit">Zoom</text>
  </g>
  
  <!-- Card 4: Vlog #2 (Current) -->
  <g transform="translate(468, 90)">
    <rect x="0" y="0" width="140" height="180" rx="12" fill="#EFF6FF" stroke="#3B82F6" stroke-width="2"/>
    <rect x="108" y="2" width="36" height="18" rx="9" fill="#3B82F6"/>
    <text x="126" y="14" text-anchor="middle" class="badge">NOW</text>
    <rect x="12" y="16" width="36" height="36" rx="8" fill="#EC4899"/>
    <text x="30" y="40" text-anchor="middle" fill="white" font-size="16">📹</text>
    <text x="56" y="30" class="card-title">Vlog #2</text>
    <text x="56" y="44" class="card-module">Module 7-8</text>
    <text x="12" y="72" class="card-date" fill="#EC4899">Feb 3</text>
    <text x="12" y="92" class="card-item">• Team intro</text>
    <text x="12" y="106" class="card-item">• Lean Canvas walkthrough</text>
    <text x="12" y="120" class="card-item">• Challenges &amp; asks</text>
    <line x1="12" y1="134" x2="128" y2="134" stroke="#D1D5DB"/>
    <text x="12" y="150" class="card-submit-label">Submit via</text>
    <text x="12" y="166" class="card-submit">Padlet</text>
  </g>
  
  <!-- Card 5: Call #3 (Upcoming) -->
  <g transform="translate(616, 90)">
    <rect x="0" y="0" width="140" height="180" rx="12" fill="#F9FAFB" stroke="#E5E7EB"/>
    <rect x="12" y="16" width="36" height="36" rx="8" fill="#10B981"/>
    <text x="30" y="40" text-anchor="middle" fill="white" font-size="16">💬</text>
    <text x="56" y="30" class="card-title">Call #3</text>
    <text x="56" y="44" class="card-module">—</text>
    <text x="12" y="72" class="card-date" fill="#10B981">Feb 24</text>
    <text x="12" y="92" class="card-item">• Progress check</text>
    <text x="12" y="106" class="card-item">• Feedback session</text>
    <text x="12" y="120" class="card-item">• LPP preview</text>
    <line x1="12" y1="134" x2="128" y2="134" stroke="#D1D5DB"/>
    <text x="12" y="150" class="card-submit-label">Submit via</text>
    <text x="12" y="166" class="card-submit">Zoom</text>
  </g>
  
  <!-- Card 6: Vlog #3 (Upcoming) -->
  <g transform="translate(764, 90)">
    <rect x="0" y="0" width="140" height="180" rx="12" fill="#F9FAFB" stroke="#E5E7EB"/>
    <rect x="12" y="16" width="36" height="36" rx="8" fill="#EC4899"/>
    <text x="30" y="40" text-anchor="middle" fill="white" font-size="16">📹</text>
    <text x="56" y="30" class="card-title">Vlog #3</text>
    <text x="56" y="44" class="card-module">Module 9</text>
    <text x="12" y="72" class="card-date" fill="#EC4899">Mar 17</text>
    <text x="12" y="92" class="card-item">• Dress rehearsal</text>
    <text x="12" y="106" class="card-item">• 3-min pitch preview</text>
    <text x="12" y="120" class="card-item">• Behind the scenes</text>
    <line x1="12" y1="134" x2="128" y2="134" stroke="#D1D5DB"/>
    <text x="12" y="150" class="card-submit-label">Submit via</text>
    <text x="12" y="166" class="card-submit">Padlet</text>
  </g>
  
  <!-- Card 7: Final Submission (Upcoming) -->
  <g transform="translate(912, 90)">
    <rect x="0" y="0" width="140" height="180" rx="12" fill="#F9FAFB" stroke="#E5E7EB"/>
    <rect x="12" y="16" width="36" height="36" rx="8" fill="#F59E0B"/>
    <text x="30" y="40" text-anchor="middle" fill="white" font-size="16">📄</text>
    <text x="56" y="30" class="card-title">Final Sub</text>
    <text x="56" y="44" class="card-module">Module 10</text>
    <text x="12" y="72" class="card-date" fill="#F59E0B">May 19</text>
    <text x="12" y="92" class="card-item">• Slide deck (8 max)</text>
    <text x="12" y="106" class="card-item">• Team info</text>
    <text x="12" y="120" class="card-item">• Attendance mode</text>
    <line x1="12" y1="134" x2="128" y2="134" stroke="#D1D5DB"/>
    <text x="12" y="150" class="card-submit-label">Submit via</text>
    <text x="12" y="166" class="card-submit">Google Form</text>
  </g>
  
  <!-- Card 8: Pitch Day (Upcoming) -->
  <g transform="translate(1060, 90)">
    <rect x="0" y="0" width="140" height="180" rx="12" fill="#F9FAFB" stroke="#E5E7EB"/>
    <rect x="12" y="16" width="36" height="36" rx="8" fill="#EF4444"/>
    <text x="30" y="40" text-anchor="middle" fill="white" font-size="16">🏆</text>
    <text x="56" y="30" class="card-title">Pitch Day</text>
    <text x="56" y="44" class="card-module">Module 10</text>
    <text x="12" y="72" class="card-date" fill="#EF4444">May 22</text>
    <text x="12" y="92" class="card-item">• 5-min presentation</text>
    <text x="12" y="106" class="card-item">• 3-min Q&amp;A</text>
    <text x="12" y="120" class="card-item">• Awards ceremony</text>
    <line x1="12" y1="134" x2="128" y2="134" stroke="#D1D5DB"/>
    <text x="12" y="150" class="card-submit-label">Submit via</text>
    <text x="12" y="166" class="card-submit">Live Event</text>
  </g>
  
  <!-- Progress Timeline -->
  <g transform="translate(24, 300)">
    <!-- Timeline bar -->
    <rect x="30" y="15" width="1100" height="6" rx="3" fill="#E5E7EB"/>
    <rect x="30" y="15" width="412" height="6" rx="3" fill="#10B981"/>
    
    <!-- Nodes -->
    <circle cx="60" cy="18" r="14" fill="#10B981"/>
    <text x="60" y="22" text-anchor="middle" fill="white" font-size="10" font-weight="700">✓</text>
    <text x="60" y="50" text-anchor="middle" class="legend">Nov 25</text>
    
    <circle cx="215" cy="18" r="14" fill="#10B981"/>
    <text x="215" y="22" text-anchor="middle" fill="white" font-size="10" font-weight="700">✓</text>
    <text x="215" y="50" text-anchor="middle" class="legend">Jan 6</text>
    
    <circle cx="370" cy="18" r="14" fill="#10B981"/>
    <text x="370" y="22" text-anchor="middle" fill="white" font-size="10" font-weight="700">✓</text>
    <text x="370" y="50" text-anchor="middle" class="legend">Jan 13</text>
    
    <circle cx="525" cy="18" r="18" fill="#3B82F6" stroke="#93C5FD" stroke-width="4"/>
    <text x="525" y="50" text-anchor="middle" class="legend" fill="#3B82F6" font-weight="600">Feb 3</text>
    
    <circle cx="680" cy="18" r="14" fill="#E5E7EB"/>
    <text x="680" y="50" text-anchor="middle" class="legend">Feb 24</text>
    
    <circle cx="835" cy="18" r="14" fill="#E5E7EB"/>
    <text x="835" y="50" text-anchor="middle" class="legend">Mar 17</text>
    
    <circle cx="990" cy="18" r="14" fill="#E5E7EB"/>
    <text x="990" y="50" text-anchor="middle" class="legend">May 19</text>
    
    <circle cx="1100" cy="18" r="14" fill="#E5E7EB"/>
    <text x="1100" y="50" text-anchor="middle" class="legend">May 22</text>
  </g>
  
  <!-- Legend -->
  <g transform="translate(400, 400)">
    <rect x="0" y="0" width="16" height="16" rx="4" fill="#10B981"/>
    <text x="24" y="13" class="legend">Complete</text>
    
    <rect x="120" y="0" width="16" height="16" rx="4" fill="#3B82F6"/>
    <text x="144" y="13" class="legend">Current</text>
    
    <rect x="240" y="0" width="16" height="16" rx="4" fill="#E5E7EB"/>
    <text x="264" y="13" class="legend">Upcoming</text>
  </g>
  
  <!-- Footer -->
  <text x="600" y="460" text-anchor="middle" font-family="Manrope, sans-serif" font-size="11" fill="#9CA3AF">GEC 2025-2026 | Hudson Lab Ventures</text>
</svg>
