<svg xmlns="http://www.w3.org/2000/svg" viewBox="0 0 800 600" width="800" height="600">
  <defs>
    <style>
      @import url('https://fonts.googleapis.com/css2?family=Manrope:wght@400;500;600;700;800&amp;display=swap');
      text { font-family: 'Manrope', sans-serif; }
    </style>
  </defs>
  
  <!-- Background -->
  <rect width="800" height="600" fill="#FFFFFF"/>
  
  <!-- Title -->
  <text x="400" y="40" text-anchor="middle" font-size="24" font-weight="700" fill="#182D53">Stakeholder Ecosystem</text>
  <text x="400" y="65" text-anchor="middle" font-size="14" font-weight="500" fill="#6B7280">Map relationships by proximity and influence</text>
  
  <!-- Concentric rings -->
  <circle cx="400" cy="320" r="300" fill="none" stroke="#D1D5DB" stroke-width="1" stroke-dasharray="4,4"/>
  <circle cx="400" cy="320" r="200" fill="none" stroke="#D1D5DB" stroke-width="1" stroke-dasharray="4,4"/>
  <circle cx="400" cy="320" r="110" fill="none" stroke="#D1D5DB" stroke-width="1"/>
  
  <!-- Ring labels -->
  <text x="520" y="135" font-size="11" font-weight="500" fill="#6B7280">Ring 1: Closest</text>
  <text x="610" y="185" font-size="11" font-weight="500" fill="#6B7280">Ring 2: Regular</text>
  <text x="710" y="235" font-size="11" font-weight="500" fill="#6B7280">Ring 3: Broader</text>
  
  <!-- Center - Main Stakeholder -->
  <circle cx="400" cy="320" r="45" fill="#ECFDF5" stroke="#00D866" stroke-width="3"/>
  <text x="400" y="312" text-anchor="middle" font-size="13" font-weight="600" fill="#182D53">MAIN</text>
  <text x="400" y="330" text-anchor="middle" font-size="13" font-weight="600" fill="#182D53">STAKEHOLDER</text>
  
  <!-- Ring 1 Stakeholders (r=110) -->
  <!-- Parent (0°) -->
  <line x1="400" y1="320" x2="510" y2="320" stroke="#D1D5DB" stroke-width="1" opacity="0.3"/>
  <circle cx="510" cy="320" r="8" fill="#FF6F3C"/>
  <text x="510" y="342" text-anchor="middle" font-size="10" font-weight="500" fill="#6B7280">Parent</text>
  
  <!-- Best Friend (120°) -->
  <line x1="400" y1="320" x2="345" y2="415" stroke="#D1D5DB" stroke-width="1" opacity="0.3"/>
  <circle cx="345" cy="415" r="8" fill="#00D866"/>
  <text x="345" y="437" text-anchor="middle" font-size="10" font-weight="500" fill="#6B7280">Best Friend</text>
  
  <!-- Teacher (240°) -->
  <line x1="400" y1="320" x2="345" y2="225" stroke="#D1D5DB" stroke-width="1" opacity="0.3"/>
  <circle cx="345" cy="225" r="8" fill="#182D53"/>
  <text x="345" y="247" text-anchor="middle" font-size="10" font-weight="500" fill="#6B7280">Teacher</text>
  
  <!-- Ring 2 Stakeholders (r=200) -->
  <!-- Coach (45°) -->
  <line x1="400" y1="320" x2="541" y2="179" stroke="#D1D5DB" stroke-width="1" opacity="0.3"/>
  <circle cx="541" cy="179" r="8" fill="#F2CB80"/>
  <text x="541" y="201" text-anchor="middle" font-size="10" font-weight="500" fill="#6B7280">Coach</text>
  
  <!-- Classmates (135°) -->
  <line x1="400" y1="320" x2="259" y2="179" stroke="#D1D5DB" stroke-width="1" opacity="0.3"/>
  <circle cx="259" cy="179" r="8" fill="#00D866"/>
  <text x="259" y="201" text-anchor="middle" font-size="10" font-weight="500" fill="#6B7280">Classmates</text>
  
  <!-- Siblings (225°) -->
  <line x1="400" y1="320" x2="259" y2="461" stroke="#D1D5DB" stroke-width="1" opacity="0.3"/>
  <circle cx="259" cy="461" r="8" fill="#FF6F3C"/>
  <text x="259" y="483" text-anchor="middle" font-size="10" font-weight="500" fill="#6B7280">Siblings</text>
  
  <!-- Counselor (315°) -->
  <line x1="400" y1="320" x2="541" y2="461" stroke="#D1D5DB" stroke-width="1" opacity="0.3"/>
  <circle cx="541" cy="461" r="8" fill="#182D53"/>
  <text x="541" y="483" text-anchor="middle" font-size="10" font-weight="500" fill="#6B7280">Counselor</text>
  
  <!-- Ring 3 Stakeholders (r=300) -->
  <!-- Admin (30°) -->
  <line x1="400" y1="320" x2="660" y2="170" stroke="#D1D5DB" stroke-width="1" opacity="0.3"/>
  <circle cx="660" cy="170" r="8" fill="#182D53"/>
  <text x="660" y="192" text-anchor="middle" font-size="10" font-weight="500" fill="#6B7280">Admin</text>
  
  <!-- Community (90°) -->
  <line x1="400" y1="320" x2="400" y2="20" stroke="#D1D5DB" stroke-width="1" opacity="0.3"/>
  <circle cx="400" cy="90" r="8" fill="#6B7280"/>
  <text x="400" y="112" text-anchor="middle" font-size="10" font-weight="500" fill="#6B7280">Community</text>
  
  <!-- Online Friends (150°) -->
  <line x1="400" y1="320" x2="140" y2="170" stroke="#D1D5DB" stroke-width="1" opacity="0.3"/>
  <circle cx="140" cy="170" r="8" fill="#00D866"/>
  <text x="140" y="192" text-anchor="middle" font-size="10" font-weight="500" fill="#6B7280">Online Friends</text>
  
  <!-- Extended Family (210°) -->
  <line x1="400" y1="320" x2="140" y2="470" stroke="#D1D5DB" stroke-width="1" opacity="0.3"/>
  <circle cx="140" cy="470" r="8" fill="#FF6F3C"/>
  <text x="140" y="492" text-anchor="middle" font-size="10" font-weight="500" fill="#6B7280">Extended Family</text>
  
  <!-- Employers (270°) -->
  <line x1="400" y1="320" x2="400" y2="620" stroke="#D1D5DB" stroke-width="1" opacity="0.3"/>
  <circle cx="400" cy="550" r="8" fill="#6B7280"/>
  <text x="400" y="530" text-anchor="middle" font-size="10" font-weight="500" fill="#6B7280">Employers</text>
  
  <!-- Healthcare (330°) -->
  <line x1="400" y1="320" x2="660" y2="470" stroke="#D1D5DB" stroke-width="1" opacity="0.3"/>
  <circle cx="660" cy="470" r="8" fill="#6B7280"/>
  <text x="660" y="492" text-anchor="middle" font-size="10" font-weight="500" fill="#6B7280">Healthcare</text>
  
  <!-- Legend -->
  <text x="50" y="520" font-size="11" font-weight="600" fill="#182D53">Relationship Types:</text>
  
  <circle cx="56" cy="540" r="6" fill="#FF6F3C"/>
  <text x="68" y="544" font-size="10" font-weight="500" fill="#6B7280">Family</text>
  
  <circle cx="136" cy="540" r="6" fill="#00D866"/>
  <text x="148" y="544" font-size="10" font-weight="500" fill="#6B7280">Peer</text>
  
  <circle cx="206" cy="540" r="6" fill="#182D53"/>
  <text x="218" y="544" font-size="10" font-weight="500" fill="#6B7280">Authority</text>
  
  <circle cx="296" cy="540" r="6" fill="#F2CB80"/>
  <text x="308" y="544" font-size="10" font-weight="500" fill="#6B7280">Mentor</text>
  
  <circle cx="376" cy="540" r="6" fill="#6B7280"/>
  <text x="388" y="544" font-size="10" font-weight="500" fill="#6B7280">System</text>
  
  <!-- Instructions -->
  <text x="400" y="580" text-anchor="middle" font-size="11" font-weight="500" fill="#6B7280">Place your main stakeholder at center. Add surrounding stakeholders in rings by relationship strength.</text>
</svg>
